{"title":"The.Fourth.Kind.2009.DVDRIP.H264-ZEKTORM","uid":5398419,"size":750257902,"categoryP":"video","categoryS":"movies","magnet":"?xt=urn:btih:ff8d97d8a9ff4e34e7e70de72284a05ac6af136a&amp;dn=The.Fourth.Kind.2009.DVDRIP.H264-ZEKTORM&amp;tr=udp%3A%2F%2Ftracker.openbittorrent.com%3A80&amp;tr=udp%3A%2F%2Fopen.demonii.com%3A1337&amp;tr=udp%3A%2F%2Ftracker.coppersurfer.tk%3A6969&amp;tr=udp%3A%2F%2Fexodus.desync.com%3A6969","seeders":2,"leechers":0,"uploader":"blowley","files":5,"time":1267321330,"description":"Title                            : The Fourth Kind\nYear                             : 2009\nGenre                            : Horror | Mystery | Sci-Fi | Thriller\niMDB URL                         : http://www.imdb.com/title/tt1220198/\n\nComplete name                    : The.Fourth.Kind.2009.DVDRIP.H264-ZEKTORM.mp4\nFormat                           : MPEG-4\nFormat profile                   : Base Media\nCodec ID                         : isom\nFile size                        : 701 MiB\nDuration                         : 1h 38mn\nOverall bit rate                 : 1000 Kbps\nSubtitles                        : English, Spanish, French (Format: VobSub)\n\nVideo\nID                               : 1\nFormat                           : AVC\nFormat/Info                      : Advanced Video Codec\nFormat profile                   : &lt;a class=&quot;__cf_email__&quot; href=&quot;/cdn-cgi/l/email-protection&quot; data-cfemail=&quot;5b13323c331b1768756b&quot;&gt;[email&amp;#160;protected]&lt;/a&gt;&lt;script cf-hash='f9e31' type=&quot;text/javascript&quot;&gt;\n/* &lt;![CDATA[ */!function(){try{var t=&quot;currentScript&quot;in document?document.currentScript:function(){for(var t=document.getElementsByTagName(&quot;script&quot;),e=t.length;e--;)if(t[e].getAttribute(&quot;cf-hash&quot;))return t[e]}();if(t&amp;&amp;t.previousSibling){var e,r,n,i,c=t.previousSibling,a=c.getAttribute(&quot;data-cfemail&quot;);if(a){for(e=&quot;&quot;,r=parseInt(a.substr(0,2),16),n=2;a.length-n;n+=2)i=parseInt(a.substr(n,2),16)^r,e+=String.fromCharCode(i);e=document.createTextNode(e),c.parentNode.replaceChild(e,c)}}}catch(u){}}();/* ]]&gt; */&lt;/script&gt;\nFormat settings, CABAC           : Yes\nCodec ID                         : avc1\nCodec ID/Info                    : Advanced Video Coding\nDuration                         : 1h 38mn\nBit rate mode                    : Variable\nBit rate                         : 916 Kbps\nMaximum bit rate                 : 5419 Kbps\nWidth                            : 720 pixels\nHeight                           : 304 pixels\nDisplay aspect ratio             : 2.35\nFrame rate mode                  : Constant\nFrame rate                       : 23.976 fps\nResolution                       : 24 bits\nColorimetry                      : 4:2:0\nScan type                        : Progressive\nBits/(Pixel*Frame)               : 0.175\nStream size                      : 642 MiB (92%)\nTitle                            : Video\nWriting library                  : x264\n\nAudio\nID                               : 2\nFormat                           : AAC\nFormat/Info                      : Advanced Audio Codec\nFormat version                   : Version 4\nFormat profile                   : LC\nFormat settings, SBR             : Yes\nFormat settings, PS              : No\nCodec ID                         : 40\nDuration                         : 1h 38mn\nBit rate mode                    : Variable\nBit rate                         : 81.3 Kbps\nMaximum bit rate                 : 103 Kbps\nChannel(s)                       : 2 channels\nChannel positions                : L R\nSampling rate                    : 48.0 KHz\nResolution                       : 16 bits\nStream size                      : 57.0 MiB (8%)\nTitle                            : English\nLanguage                         : English\n","torrent":{"xt":"urn:btih:ff8d97d8a9ff4e34e7e70de72284a05ac6af136a","amp;dn":"The.Fourth.Kind.2009.DVDRIP.H264-ZEKTORM","amp;tr":["udp%3A%2F%2Ftracker.openbittorrent.com%3A80","udp%3A%2F%2Fopen.demonii.com%3A1337","udp%3A%2F%2Ftracker.coppersurfer.tk%3A6969","udp%3A%2F%2Fexodus.desync.com%3A6969"],"infoHash":"ff8d97d8a9ff4e34e7e70de72284a05ac6af136a","infoHashBuffer":{"type":"Buffer","data":[255,141,151,216,169,255,78,52,231,231,13,231,34,132,160,90,198,175,19,106]},"announce":[],"urlList":[]}}